<svg width="25" height="25" fill="none" xmlns="http://www.w3.org/2000/svg"><mask id="a" fill="#fff"><rect width="7" height="7" rx="1"/></mask><rect width="7" height="7" rx="1" stroke="#343434" stroke-width="3" mask="url(#a)"/><mask id="b" fill="#fff"><rect x="9" width="7" height="7" rx="1"/></mask><rect x="9" width="7" height="7" rx="1" stroke="#343434" stroke-width="3" mask="url(#b)"/><mask id="c" fill="#fff"><rect x="18" width="7" height="7" rx="1"/></mask><rect x="18" width="7" height="7" rx="1" stroke="#343434" stroke-width="3" mask="url(#c)"/><mask id="d" fill="#fff"><rect y="9" width="7" height="7" rx="1"/></mask><rect y="9" width="7" height="7" rx="1" stroke="#343434" stroke-width="3" mask="url(#d)"/><mask id="e" fill="#fff"><rect x="9" y="9" width="7" height="7" rx="1"/></mask><rect x="9" y="9" width="7" height="7" rx="1" stroke="#343434" stroke-width="3" mask="url(#e)"/><mask id="f" fill="#fff"><rect x="18" y="9" width="7" height="7" rx="1"/></mask><rect x="18" y="9" width="7" height="7" rx="1" stroke="#343434" stroke-width="3" mask="url(#f)"/><mask id="g" fill="#fff"><rect y="18" width="7" height="7" rx="1"/></mask><rect y="18" width="7" height="7" rx="1" stroke="#343434" stroke-width="3" mask="url(#g)"/><mask id="h" fill="#fff"><rect x="9" y="18" width="7" height="7" rx="1"/></mask><rect x="9" y="18" width="7" height="7" rx="1" stroke="#343434" stroke-width="3" mask="url(#h)"/><mask id="i" fill="#fff"><rect x="18" y="18" width="7" height="7" rx="1"/></mask><rect x="18" y="18" width="7" height="7" rx="1" stroke="#343434" stroke-width="3" mask="url(#i)"/></svg>