<svg width="42" height="40" fill="none" xmlns="http://www.w3.org/2000/svg"><mask id="a" maskUnits="userSpaceOnUse" x="0" y="0" width="42" height="40" fill="#000"><path fill="#fff" d="M0 0h42v40H0z"/><path d="M40.919 23.662l-4-7.908a.698.698 0 00-.245-.274.63.63 0 00-.34-.1h-8a.643.643 0 00-.472.21.749.749 0 00-.195.508v10.785H23v-1.438h2a.643.643 0 00.471-.211.749.749 0 00.196-.508v-5.752c0-.19-.07-.374-.196-.508l-3.333-3.595a.643.643 0 00-.471-.21H19.2l13.133-9.442v3.69c0 .19.07.373.196.508a.64.64 0 00.471.21c.264 0 .522.085.74.243.22.158.39.382.492.645.1.263.127.552.076.83a1.475 1.475 0 01-.365.737 1.306 1.306 0 01-.683.394 1.243 1.243 0 01-.77-.082 1.36 1.36 0 01-.599-.53 1.52 1.52 0 01-.224-.799h-1.334c0 .538.14 1.065.404 1.522a2.75 2.75 0 001.089 1.06c.448.237.948.334 1.444.28a2.561 2.561 0 001.363-.588c.394-.33.695-.771.868-1.276a3.09 3.09 0 00.11-1.578 2.957 2.957 0 00-.68-1.402 2.633 2.633 0 00-1.264-.802V3.876h-.012a.743.743 0 00-.1-.4L32.222 1.32a.668.668 0 00-.41-.303.626.626 0 00-.49.087L5.989 17.64a.694.694 0 00-.234.262.759.759 0 00-.084.353h-.004v6.47c0 .191.07.374.195.509s.295.21.471.21H7v1.439H1.667a.643.643 0 00-.472.21.749.749 0 00-.195.509v5.032c0 .19.07.374.195.509.125.134.295.21.472.21h3.53a5.413 5.413 0 00-.126 2.318 5.24 5.24 0 00.852 2.132c.434.63.999 1.14 1.649 1.493.65.352 1.367.535 2.095.535.727 0 1.444-.183 2.095-.535a4.773 4.773 0 001.649-1.493c.434-.63.726-1.36.852-2.132a5.414 5.414 0 00-.126-2.318h13.726a5.414 5.414 0 00-.126 2.318c.126.773.418 1.503.853 2.132a4.77 4.77 0 001.648 1.493c.65.352 1.368.535 2.095.535.728 0 1.445-.183 2.095-.535a4.773 4.773 0 001.65-1.493c.433-.63.725-1.36.851-2.132a5.412 5.412 0 00-.126-2.318h3.53a.643.643 0 00.472-.21.748.748 0 00.195-.509v-8.627a.764.764 0 00-.081-.345zm-4.982-6.845l3.637 7.19h-7.907v-7.19h4.27zm-13.604 7.19h-4.666v-7.909H19v5.752c0 .19.07.373.195.508s.295.21.472.21h4.666v1.439h-2zm-14.666 0H7v-5.033h9.333v5.033H7.667zm13.724-7.909l2.942 3.174v1.859h-4v-5.033h1.058zm-5.058 1.438H15.2l1.133-.814v.814zM31.467 2.691l.61.986L12.8 17.536H8.722L31.467 2.691zM8.333 25.445h13.334v1.438H8.333v-1.438zm1.334 12.94c-.66 0-1.304-.21-1.852-.605a3.55 3.55 0 01-1.228-1.613 3.858 3.858 0 01-.19-2.077 3.69 3.69 0 01.913-1.84 3.265 3.265 0 011.706-.985 3.109 3.109 0 011.926.205c.61.272 1.13.733 1.496 1.324A3.79 3.79 0 0113 34.791a3.747 3.747 0 01-.977 2.54 3.22 3.22 0 01-2.356 1.055zm3.824-6.47c-.429-.665-1-1.21-1.667-1.585a4.386 4.386 0 00-2.157-.571c-.752 0-1.492.196-2.158.571a4.788 4.788 0 00-1.666 1.585h-3.51V28.32h29.334a3.8 3.8 0 012.212.722 4.263 4.263 0 011.474 1.92 4.559 4.559 0 00-1.695-.995 4.327 4.327 0 00-1.923-.167 4.435 4.435 0 00-1.82.689 4.82 4.82 0 00-1.406 1.426H13.491zm18.842 6.47c-.659 0-1.303-.21-1.852-.605a3.551 3.551 0 01-1.227-1.613 3.858 3.858 0 01-.19-2.077 3.69 3.69 0 01.912-1.84 3.265 3.265 0 011.707-.985 3.109 3.109 0 011.926.205c.609.272 1.13.733 1.496 1.324a3.8 3.8 0 01.562 1.997 3.747 3.747 0 01-.978 2.54 3.22 3.22 0 01-2.356 1.055zm4.626-6.47c-.011-.091-.029-.18-.044-.27-.011-.071-.02-.143-.033-.209a5.877 5.877 0 00-.086-.36c-.015-.056-.026-.114-.043-.17a5.768 5.768 0 00-.172-.503l-.015-.036a6.406 6.406 0 00-.2-.45c-.029-.058-.062-.112-.092-.168-.053-.098-.105-.196-.164-.288-.038-.061-.08-.12-.12-.18-.057-.084-.113-.168-.173-.248-.046-.061-.094-.119-.142-.178-.06-.072-.121-.149-.185-.22-.052-.057-.106-.112-.16-.167a10.782 10.782 0 00-.2-.197 6.353 6.353 0 00-.577-.463 5.134 5.134 0 00-.682-.4c-.066-.033-.133-.067-.2-.097-.088-.039-.178-.072-.266-.106-.067-.026-.134-.052-.205-.072-.097-.032-.195-.056-.295-.082-.066-.017-.133-.037-.2-.051a4.669 4.669 0 00-.338-.056c-.057-.008-.114-.02-.172-.026a5.078 5.078 0 00-.524-.029H29V16.817h1.333v7.909c0 .19.07.373.196.508a.64.64 0 00.471.21h8.667v6.471h-2.708z"/></mask><path d="M40.919 23.662l-4-7.908a.698.698 0 00-.245-.274.63.63 0 00-.34-.1h-8a.643.643 0 00-.472.21.749.749 0 00-.195.508v10.785H23v-1.438h2a.643.643 0 00.471-.211.749.749 0 00.196-.508v-5.752c0-.19-.07-.374-.196-.508l-3.333-3.595a.643.643 0 00-.471-.21H19.2l13.133-9.442v3.69c0 .19.07.373.196.508a.64.64 0 00.471.21c.264 0 .522.085.74.243.22.158.39.382.492.645.1.263.127.552.076.83a1.475 1.475 0 01-.365.737 1.306 1.306 0 01-.683.394 1.243 1.243 0 01-.77-.082 1.36 1.36 0 01-.599-.53 1.52 1.52 0 01-.224-.799h-1.334c0 .538.14 1.065.404 1.522a2.75 2.75 0 001.089 1.06c.448.237.948.334 1.444.28a2.561 2.561 0 001.363-.588c.394-.33.695-.771.868-1.276a3.09 3.09 0 00.11-1.578 2.957 2.957 0 00-.68-1.402 2.633 2.633 0 00-1.264-.802V3.876h-.012a.743.743 0 00-.1-.4L32.222 1.32a.668.668 0 00-.41-.303.626.626 0 00-.49.087L5.989 17.64a.694.694 0 00-.234.262.759.759 0 00-.084.353h-.004v6.47c0 .191.07.374.195.509s.295.21.471.21H7v1.439H1.667a.643.643 0 00-.472.21.749.749 0 00-.195.509v5.032c0 .19.07.374.195.509.125.134.295.21.472.21h3.53a5.413 5.413 0 00-.126 2.318 5.24 5.24 0 00.852 2.132c.434.63.999 1.14 1.649 1.493.65.352 1.367.535 2.095.535.727 0 1.444-.183 2.095-.535a4.773 4.773 0 001.649-1.493c.434-.63.726-1.36.852-2.132a5.414 5.414 0 00-.126-2.318h13.726a5.414 5.414 0 00-.126 2.318c.126.773.418 1.503.853 2.132a4.77 4.77 0 001.648 1.493c.65.352 1.368.535 2.095.535.728 0 1.445-.183 2.095-.535a4.773 4.773 0 001.65-1.493c.433-.63.725-1.36.851-2.132a5.412 5.412 0 00-.126-2.318h3.53a.643.643 0 00.472-.21.748.748 0 00.195-.509v-8.627a.764.764 0 00-.081-.345zm-4.982-6.845l3.637 7.19h-7.907v-7.19h4.27zm-13.604 7.19h-4.666v-7.909H19v5.752c0 .19.07.373.195.508s.295.21.472.21h4.666v1.439h-2zm-14.666 0H7v-5.033h9.333v5.033H7.667zm13.724-7.909l2.942 3.174v1.859h-4v-5.033h1.058zm-5.058 1.438H15.2l1.133-.814v.814zM31.467 2.691l.61.986L12.8 17.536H8.722L31.467 2.691zM8.333 25.445h13.334v1.438H8.333v-1.438zm1.334 12.94c-.66 0-1.304-.21-1.852-.605a3.55 3.55 0 01-1.228-1.613 3.858 3.858 0 01-.19-2.077 3.69 3.69 0 01.913-1.84 3.265 3.265 0 011.706-.985 3.109 3.109 0 011.926.205c.61.272 1.13.733 1.496 1.324A3.79 3.79 0 0113 34.791a3.747 3.747 0 01-.977 2.54 3.22 3.22 0 01-2.356 1.055zm3.824-6.47c-.429-.665-1-1.21-1.667-1.585a4.386 4.386 0 00-2.157-.571c-.752 0-1.492.196-2.158.571a4.788 4.788 0 00-1.666 1.585h-3.51V28.32h29.334a3.8 3.8 0 012.212.722 4.263 4.263 0 011.474 1.92 4.559 4.559 0 00-1.695-.995 4.327 4.327 0 00-1.923-.167 4.435 4.435 0 00-1.82.689 4.82 4.82 0 00-1.406 1.426H13.491zm18.842 6.47c-.659 0-1.303-.21-1.852-.605a3.551 3.551 0 01-1.227-1.613 3.858 3.858 0 01-.19-2.077 3.69 3.69 0 01.912-1.84 3.265 3.265 0 011.707-.985 3.109 3.109 0 011.926.205c.609.272 1.13.733 1.496 1.324a3.8 3.8 0 01.562 1.997 3.747 3.747 0 01-.978 2.54 3.22 3.22 0 01-2.356 1.055zm4.626-6.47c-.011-.091-.029-.18-.044-.27-.011-.071-.02-.143-.033-.209a5.877 5.877 0 00-.086-.36c-.015-.056-.026-.114-.043-.17a5.768 5.768 0 00-.172-.503l-.015-.036a6.406 6.406 0 00-.2-.45c-.029-.058-.062-.112-.092-.168-.053-.098-.105-.196-.164-.288-.038-.061-.08-.12-.12-.18-.057-.084-.113-.168-.173-.248-.046-.061-.094-.119-.142-.178-.06-.072-.121-.149-.185-.22-.052-.057-.106-.112-.16-.167a10.782 10.782 0 00-.2-.197 6.353 6.353 0 00-.577-.463 5.134 5.134 0 00-.682-.4c-.066-.033-.133-.067-.2-.097-.088-.039-.178-.072-.266-.106-.067-.026-.134-.052-.205-.072-.097-.032-.195-.056-.295-.082-.066-.017-.133-.037-.2-.051a4.669 4.669 0 00-.338-.056c-.057-.008-.114-.02-.172-.026a5.078 5.078 0 00-.524-.029H29V16.817h1.333v7.909c0 .19.07.373.196.508a.64.64 0 00.471.21h8.667v6.471h-2.708z" fill="#343434"/><path d="M40.919 23.662l-4-7.908a.698.698 0 00-.245-.274.63.63 0 00-.34-.1h-8a.643.643 0 00-.472.21.749.749 0 00-.195.508v10.785H23v-1.438h2a.643.643 0 00.471-.211.749.749 0 00.196-.508v-5.752c0-.19-.07-.374-.196-.508l-3.333-3.595a.643.643 0 00-.471-.21H19.2l13.133-9.442v3.69c0 .19.07.373.196.508a.64.64 0 00.471.21c.264 0 .522.085.74.243.22.158.39.382.492.645.1.263.127.552.076.83a1.475 1.475 0 01-.365.737 1.306 1.306 0 01-.683.394 1.243 1.243 0 01-.77-.082 1.36 1.36 0 01-.599-.53 1.52 1.52 0 01-.224-.799h-1.334c0 .538.14 1.065.404 1.522a2.75 2.75 0 001.089 1.06c.448.237.948.334 1.444.28a2.561 2.561 0 001.363-.588c.394-.33.695-.771.868-1.276a3.09 3.09 0 00.11-1.578 2.957 2.957 0 00-.68-1.402 2.633 2.633 0 00-1.264-.802V3.876h-.012a.743.743 0 00-.1-.4L32.222 1.32a.668.668 0 00-.41-.303.626.626 0 00-.49.087L5.989 17.64a.694.694 0 00-.234.262.759.759 0 00-.084.353h-.004v6.47c0 .191.07.374.195.509s.295.21.471.21H7v1.439H1.667a.643.643 0 00-.472.21.749.749 0 00-.195.509v5.032c0 .19.07.374.195.509.125.134.295.21.472.21h3.53a5.413 5.413 0 00-.126 2.318 5.24 5.24 0 00.852 2.132c.434.63.999 1.14 1.649 1.493.65.352 1.367.535 2.095.535.727 0 1.444-.183 2.095-.535a4.773 4.773 0 001.649-1.493c.434-.63.726-1.36.852-2.132a5.414 5.414 0 00-.126-2.318h13.726a5.414 5.414 0 00-.126 2.318c.126.773.418 1.503.853 2.132a4.77 4.77 0 001.648 1.493c.65.352 1.368.535 2.095.535.728 0 1.445-.183 2.095-.535a4.773 4.773 0 001.65-1.493c.433-.63.725-1.36.851-2.132a5.412 5.412 0 00-.126-2.318h3.53a.643.643 0 00.472-.21.748.748 0 00.195-.509v-8.627a.764.764 0 00-.081-.345zm-4.982-6.845l3.637 7.19h-7.907v-7.19h4.27zm-13.604 7.19h-4.666v-7.909H19v5.752c0 .19.07.373.195.508s.295.21.472.21h4.666v1.439h-2zm-14.666 0H7v-5.033h9.333v5.033H7.667zm13.724-7.909l2.942 3.174v1.859h-4v-5.033h1.058zm-5.058 1.438H15.2l1.133-.814v.814zM31.467 2.691l.61.986L12.8 17.536H8.722L31.467 2.691zM8.333 25.445h13.334v1.438H8.333v-1.438zm1.334 12.94c-.66 0-1.304-.21-1.852-.605a3.55 3.55 0 01-1.228-1.613 3.858 3.858 0 01-.19-2.077 3.69 3.69 0 01.913-1.84 3.265 3.265 0 011.706-.985 3.109 3.109 0 011.926.205c.61.272 1.13.733 1.496 1.324A3.79 3.79 0 0113 34.791a3.747 3.747 0 01-.977 2.54 3.22 3.22 0 01-2.356 1.055zm3.824-6.47c-.429-.665-1-1.21-1.667-1.585a4.386 4.386 0 00-2.157-.571c-.752 0-1.492.196-2.158.571a4.788 4.788 0 00-1.666 1.585h-3.51V28.32h29.334a3.8 3.8 0 012.212.722 4.263 4.263 0 011.474 1.92 4.559 4.559 0 00-1.695-.995 4.327 4.327 0 00-1.923-.167 4.435 4.435 0 00-1.82.689 4.82 4.82 0 00-1.406 1.426H13.491zm18.842 6.47c-.659 0-1.303-.21-1.852-.605a3.551 3.551 0 01-1.227-1.613 3.858 3.858 0 01-.19-2.077 3.69 3.69 0 01.912-1.84 3.265 3.265 0 011.707-.985 3.109 3.109 0 011.926.205c.609.272 1.13.733 1.496 1.324a3.8 3.8 0 01.562 1.997 3.747 3.747 0 01-.978 2.54 3.22 3.22 0 01-2.356 1.055zm4.626-6.47c-.011-.091-.029-.18-.044-.27-.011-.071-.02-.143-.033-.209a5.877 5.877 0 00-.086-.36c-.015-.056-.026-.114-.043-.17a5.768 5.768 0 00-.172-.503l-.015-.036a6.406 6.406 0 00-.2-.45c-.029-.058-.062-.112-.092-.168-.053-.098-.105-.196-.164-.288-.038-.061-.08-.12-.12-.18-.057-.084-.113-.168-.173-.248-.046-.061-.094-.119-.142-.178-.06-.072-.121-.149-.185-.22-.052-.057-.106-.112-.16-.167a10.782 10.782 0 00-.2-.197 6.353 6.353 0 00-.577-.463 5.134 5.134 0 00-.682-.4c-.066-.033-.133-.067-.2-.097-.088-.039-.178-.072-.266-.106-.067-.026-.134-.052-.205-.072-.097-.032-.195-.056-.295-.082-.066-.017-.133-.037-.2-.051a4.669 4.669 0 00-.338-.056c-.057-.008-.114-.02-.172-.026a5.078 5.078 0 00-.524-.029H29V16.817h1.333v7.909c0 .19.07.373.196.508a.64.64 0 00.471.21h8.667v6.471h-2.708z" stroke="#343434" stroke-width=".2" mask="url(#a)"/></svg>