<svg width="44" height="27" fill="none" xmlns="http://www.w3.org/2000/svg"><path d="M19.666 23.019c.967 0 1.75-.845 1.75-1.888 0-1.042-.783-1.887-1.75-1.887-.966 0-1.75.845-1.75 1.887 0 1.043.784 1.888 1.75 1.888zm-5.832-.001c.966 0 1.75-.845 1.75-1.887s-.784-1.887-1.75-1.887c-.967 0-1.75.845-1.75 1.887 0 1.043.783 1.887 1.75 1.887zM9.75 21.131c0 1.043-.783 1.888-1.75 1.888-.966 0-1.75-.845-1.75-1.888 0-1.041.783-1.886 1.75-1.886s1.75.845 1.75 1.886zm15.75 1.888c.967 0 1.75-.845 1.75-1.888 0-1.042-.783-1.887-1.75-1.887-.966 0-1.75.845-1.75 1.887 0 1.043.784 1.888 1.75 1.888zm5.833 0c.967 0 1.75-.845 1.75-1.888 0-1.042-.783-1.887-1.75-1.887-.966 0-1.75.845-1.75 1.887 0 1.043.784 1.888 1.75 1.888z" stroke="#343434" stroke-width="1.5" stroke-miterlimit="10" stroke-linecap="round" stroke-linejoin="round"/><path d="M31.333 16.1H8c-2.576 0-4.665 2.252-4.665 5.031 0 2.78 2.09 5.034 4.665 5.034h23.333c2.578 0 4.668-2.254 4.668-5.034 0-2.777-2.09-5.032-4.668-5.032z" stroke="#343434" stroke-width="1.5" stroke-miterlimit="10" stroke-linecap="round" stroke-linejoin="round"/><path d="M3.335 21.131c0-2.778 2.09-5.031 4.665-5.031h23.333l-2.334-5.034H3.334V21.13h0zm16.333-10.065H3.334L5.667 1h11.666l2.335 10.066zM3.334 16.098H1v5.033h2.334v-5.033z" stroke="#343434" stroke-width="1.5" stroke-miterlimit="10" stroke-linecap="round" stroke-linejoin="round"/><path d="M26.668 4.775c-1.288 0-2.333 1.127-2.333 2.516v8.808-8.808c0-1.389 1.044-2.516 2.333-2.516zm.582 6.29v5.033-5.033zm-5.833 0v5.033-5.033zm-2.917 0v5.033-5.033zm-8.166-6.92v3.147l9.333 3.774-1.605-6.92h-7.728zm30.334 22.02c-1.289 0-2.334-1.127-2.334-2.518V11.066h2.333L43 26.165h-2.333.001zm-9.334-10.066v0c1.726 0 3.23 1.013 4.036 2.517h2.964v-5.034l-7 2.517z" stroke="#343434" stroke-width="1.5" stroke-miterlimit="10" stroke-linecap="round" stroke-linejoin="round"/></svg>