<svg width="46" height="37" fill="none" xmlns="http://www.w3.org/2000/svg"><path d="M44.485 16.025c-.009-.01-.014-.022-.023-.03L28.496.244a.836.836 0 00-.652-.243.841.841 0 00-.641.231L9.036 17.493h-6.48c-.47 0-.852.39-.852.872v6.972c0 .482.381.872.852.872h5.963v1.743h-4.26C1.911 27.952 0 29.907 0 32.309c0 2.403 1.91 4.358 4.26 4.358h20.444c2.348 0 4.259-1.955 4.259-4.358 0-2.402-1.91-4.357-4.26-4.357h-5.962v-1.743h7.666c.471 0 .852-.39.852-.872v-8.715a.89.89 0 00-.143-.484l-3.15-4.836 3.918-4.01 10.596 9.475c.008.05.015.098.031.146.096.277.236.526.373.767.134.237.301.533.301.685 0 2.027-1.347 3.77-3.276 4.236a.857.857 0 00-.612.572.885.885 0 00.154.833 5.897 5.897 0 004.586 2.203c3.287 0 5.963-2.738 5.963-6.101 0-1.524-.53-2.969-1.496-4.069-.006-.007-.014-.008-.02-.014zM27.259 32.309c0 1.442-1.146 2.615-2.555 2.615H4.259c-1.409 0-2.555-1.173-2.555-2.615 0-1.441 1.146-2.614 2.555-2.614h20.445c1.409 0 2.555 1.173 2.555 2.614zm-10.222-4.357h-6.815v-1.743h6.815v1.743zm8.519-3.486H3.407v-1.744H9.37c.47 0 .852-.39.852-.871a.862.862 0 00-.852-.872H3.407v-1.743h22.149v5.23zm0-6.973h-5.112v-5.229h2.1l3.012 4.62v.61zM27.24 5.484l-4.844 4.957c-.023.023-.032.054-.052.08h-2.752c-.47 0-.852.39-.852.871v6.101h-7.2l16.294-15.48L41.76 15.75h-1.829L28.406 5.445a.84.84 0 00-1.165.04zm12.796 18.982c-.837 0-1.642-.25-2.325-.708 1.924-1.032 3.177-3.08 3.177-5.393a2.31 2.31 0 00-.184-.872h2.762c.537.738.83 1.653.83 2.615 0 2.403-1.911 4.358-4.26 4.358z" fill="#fff"/></svg>