<svg width="39" height="33" fill="none" xmlns="http://www.w3.org/2000/svg"><path d="M4.49 20H1v-5.93c0-.673.495-2.02 2.473-2.02h4.654V1H17l5.236 10.376m0 0l-1.861 1.347m1.861-1.347H33v5.17m-12.625-3.823l-2.793 2.022h-7.128V3.29h5.091l4.83 9.432zM14.25 25.5c0 3.124-2.745 5.75-6.25 5.75s-6.25-2.626-6.25-5.75S4.495 19.75 8 19.75s6.25 2.626 6.25 5.75z" stroke="#fff" stroke-width="1.5"/><circle cx="8.5" cy="25.5" r="2.75" stroke="#fff" stroke-width="1.5"/><path d="M13.531 26H38v-7H9" stroke="#fff" stroke-width="1.5"/><path fill-rule="evenodd" clip-rule="evenodd" d="M35.129 26c-.993 3.23-3.856 5.5-7.129 5.5-3.273 0-6.136-2.27-7.129-5.5h-1.556c1.04 4.034 4.534 7 8.685 7 4.15 0 7.645-2.966 8.685-7H35.13zm-13.333-7c1.363-2.128 3.66-3.5 6.204-3.5 2.544 0 4.84 1.372 6.204 3.5h1.724c-1.52-2.977-4.5-5-7.928-5s-6.409 2.023-7.928 5h1.724z" fill="#fff"/></svg>