<svg width="39" height="42" fill="none" xmlns="http://www.w3.org/2000/svg"><mask id="a" maskUnits="userSpaceOnUse" x="0" y="0" width="39" height="42" fill="#000"><path fill="#fff" d="M0 0h39v42H0z"/><path d="M33.204 16.15c1.04-.692 1.803-1.777 2.143-3.043A5.694 5.694 0 0035.04 9.3c-.537-1.184-1.462-2.11-2.597-2.6a4.592 4.592 0 00-3.543-.048l-8.28 1.675-.003.001a2.39 2.39 0 00-1.666.817 2.77 2.77 0 00-.684 1.83v4.656h-3.084V14.3h1.85a.58.58 0 00.281-.073.633.633 0 00.22-.204.715.715 0 00.085-.6l-.963-3.113h.377a.582.582 0 00.281-.074.633.633 0 00.22-.203.715.715 0 00.085-.6l-1.234-3.99a.664.664 0 00-.224-.328.587.587 0 00-.361-.126H8.4a.587.587 0 00-.36.126.664.664 0 00-.225.329l-1.233 3.99a.715.715 0 00.085.6.633.633 0 00.219.202.582.582 0 00.28.074h.378l-.822 2.66H4.7V1.665a.693.693 0 00-.18-.47A.595.595 0 004.082 1H1.617c-.164 0-.32.07-.436.195a.693.693 0 00-.181.47v2.66c0 .177.065.346.18.47a.595.595 0 00.437.195h1.85v8.646c0 .176.065.345.18.47a.595.595 0 00.436.195h4.934v1.33H8.4c-1.962.002-3.843.844-5.23 2.34-1.387 1.496-2.168 3.525-2.17 5.64v3.99c.003 2.008.707 3.94 1.971 5.413 1.264 1.473 2.997 2.379 4.852 2.537a3.459 3.459 0 00-.656 2.026c0 .882.325 1.728.903 2.352a2.974 2.974 0 002.18.974c.818 0 1.602-.35 2.18-.974a3.46 3.46 0 00.903-2.352 3.462 3.462 0 00-.632-1.995h13.598a3.462 3.462 0 00-.632 1.995c0 .882.324 1.728.903 2.352a2.974 2.974 0 002.18.974c.818 0 1.602-.35 2.18-.974a3.46 3.46 0 00.903-2.352 3.458 3.458 0 00-.656-2.026c1.855-.158 3.588-1.064 4.852-2.537 1.264-1.473 1.968-3.405 1.971-5.412v-3.99a8.428 8.428 0 00-1.32-4.537c-.856-1.333-2.069-2.353-3.476-2.924zM2.234 2.33h1.233v1.33H2.233V2.33zM23.2 10.976a2.76 2.76 0 00-.585-1.7l4.04-.816a5.54 5.54 0 00-.973 2.77 5.636 5.636 0 00.561 2.9L23.2 13.106v-2.13zm3.359 4.655H23.2v-1.132l3.359 1.132zm7.741-3.99a4.16 4.16 0 01-1.057 2.787c-.676.745-1.596 1.175-2.562 1.198l-2.247-.757a3.94 3.94 0 01-1.224-1.635 4.266 4.266 0 01-.283-2.08c.08-.708.336-1.38.74-1.945a3.735 3.735 0 011.554-1.268l1.424-.288c.973.013 1.902.44 2.586 1.186A4.16 4.16 0 0134.3 11.64zM20.733 9.646c.244 0 .483.078.686.224.202.146.36.354.454.597.093.243.118.51.07.768a1.365 1.365 0 01-.338.681 1.208 1.208 0 01-.631.364 1.15 1.15 0 01-.713-.075 1.259 1.259 0 01-.553-.49 1.405 1.405 0 01-.208-.74c0-.352.13-.69.362-.94.23-.249.544-.39.871-.39zm-1.233 3.62c.333.21.708.331 1.094.355l1.373.462v1.548H19.5v-2.365zM8.844 6.32h6.512l.822 2.66H8.022l.822-2.66zm-.822 6.65l.822-2.66h6.512l.822 2.66H8.022zm2.228 1.33h3.7v1.33h-3.7V14.3zm1.85 23.277c0 .395-.108.78-.312 1.109a1.888 1.888 0 01-.83.734c-.338.151-.71.191-1.069.114a1.812 1.812 0 01-.947-.546 2.048 2.048 0 01-.506-1.021 2.14 2.14 0 01.105-1.153 1.97 1.97 0 01.681-.896 1.757 1.757 0 011.028-.336c.49 0 .96.211 1.308.585.346.374.542.881.542 1.41zm16.65 1.995c-.366 0-.724-.117-1.028-.336a1.97 1.97 0 01-.681-.895 2.142 2.142 0 01-.105-1.153 2.04 2.04 0 01.506-1.022c.259-.278.588-.468.947-.545.359-.078.73-.038 1.069.113.338.151.627.407.83.735.203.328.312.714.312 1.108a2.08 2.08 0 01-.542 1.41 1.787 1.787 0 01-1.308.585zm8.017-11.97c-.002 1.763-.652 3.453-1.809 4.7-1.156 1.247-2.723 1.948-4.358 1.95H8.4c-1.635-.002-3.202-.703-4.358-1.95-1.157-1.247-1.807-2.937-1.809-4.7v-3.99c.002-1.764.652-3.454 1.809-4.701 1.156-1.247 2.723-1.948 4.358-1.95h22.202c1.634.003 3.201.704 4.357 1.95 1.156 1.247 1.806 2.938 1.808 4.7v3.99z"/></mask><path d="M33.204 16.15c1.04-.692 1.803-1.777 2.143-3.043A5.694 5.694 0 0035.04 9.3c-.537-1.184-1.462-2.11-2.597-2.6a4.592 4.592 0 00-3.543-.048l-8.28 1.675-.003.001a2.39 2.39 0 00-1.666.817 2.77 2.77 0 00-.684 1.83v4.656h-3.084V14.3h1.85a.58.58 0 00.281-.073.633.633 0 00.22-.204.715.715 0 00.085-.6l-.963-3.113h.377a.582.582 0 00.281-.074.633.633 0 00.22-.203.715.715 0 00.085-.6l-1.234-3.99a.664.664 0 00-.224-.328.587.587 0 00-.361-.126H8.4a.587.587 0 00-.36.126.664.664 0 00-.225.329l-1.233 3.99a.715.715 0 00.085.6.633.633 0 00.219.202.582.582 0 00.28.074h.378l-.822 2.66H4.7V1.665a.693.693 0 00-.18-.47A.595.595 0 004.082 1H1.617c-.164 0-.32.07-.436.195a.693.693 0 00-.181.47v2.66c0 .177.065.346.18.47a.595.595 0 00.437.195h1.85v8.646c0 .176.065.345.18.47a.595.595 0 00.436.195h4.934v1.33H8.4c-1.962.002-3.843.844-5.23 2.34-1.387 1.496-2.168 3.525-2.17 5.64v3.99c.003 2.008.707 3.94 1.971 5.413 1.264 1.473 2.997 2.379 4.852 2.537a3.459 3.459 0 00-.656 2.026c0 .882.325 1.728.903 2.352a2.974 2.974 0 002.18.974c.818 0 1.602-.35 2.18-.974a3.46 3.46 0 00.903-2.352 3.462 3.462 0 00-.632-1.995h13.598a3.462 3.462 0 00-.632 1.995c0 .882.324 1.728.903 2.352a2.974 2.974 0 002.18.974c.818 0 1.602-.35 2.18-.974a3.46 3.46 0 00.903-2.352 3.458 3.458 0 00-.656-2.026c1.855-.158 3.588-1.064 4.852-2.537 1.264-1.473 1.968-3.405 1.971-5.412v-3.99a8.428 8.428 0 00-1.32-4.537c-.856-1.333-2.069-2.353-3.476-2.924zM2.234 2.33h1.233v1.33H2.233V2.33zM23.2 10.976a2.76 2.76 0 00-.585-1.7l4.04-.816a5.54 5.54 0 00-.973 2.77 5.636 5.636 0 00.561 2.9L23.2 13.106v-2.13zm3.359 4.655H23.2v-1.132l3.359 1.132zm7.741-3.99a4.16 4.16 0 01-1.057 2.787c-.676.745-1.596 1.175-2.562 1.198l-2.247-.757a3.94 3.94 0 01-1.224-1.635 4.266 4.266 0 01-.283-2.08c.08-.708.336-1.38.74-1.945a3.735 3.735 0 011.554-1.268l1.424-.288c.973.013 1.902.44 2.586 1.186A4.16 4.16 0 0134.3 11.64zM20.733 9.646c.244 0 .483.078.686.224.202.146.36.354.454.597.093.243.118.51.07.768a1.365 1.365 0 01-.338.681 1.208 1.208 0 01-.631.364 1.15 1.15 0 01-.713-.075 1.259 1.259 0 01-.553-.49 1.405 1.405 0 01-.208-.74c0-.352.13-.69.362-.94.23-.249.544-.39.871-.39zm-1.233 3.62c.333.21.708.331 1.094.355l1.373.462v1.548H19.5v-2.365zM8.844 6.32h6.512l.822 2.66H8.022l.822-2.66zm-.822 6.65l.822-2.66h6.512l.822 2.66H8.022zm2.228 1.33h3.7v1.33h-3.7V14.3zm1.85 23.277c0 .395-.108.78-.312 1.109a1.888 1.888 0 01-.83.734c-.338.151-.71.191-1.069.114a1.812 1.812 0 01-.947-.546 2.048 2.048 0 01-.506-1.021 2.14 2.14 0 01.105-1.153 1.97 1.97 0 01.681-.896 1.757 1.757 0 011.028-.336c.49 0 .96.211 1.308.585.346.374.542.881.542 1.41zm16.65 1.995c-.366 0-.724-.117-1.028-.336a1.97 1.97 0 01-.681-.895 2.142 2.142 0 01-.105-1.153 2.04 2.04 0 01.506-1.022c.259-.278.588-.468.947-.545.359-.078.73-.038 1.069.113.338.151.627.407.83.735.203.328.312.714.312 1.108a2.08 2.08 0 01-.542 1.41 1.787 1.787 0 01-1.308.585zm8.017-11.97c-.002 1.763-.652 3.453-1.809 4.7-1.156 1.247-2.723 1.948-4.358 1.95H8.4c-1.635-.002-3.202-.703-4.358-1.95-1.157-1.247-1.807-2.937-1.809-4.7v-3.99c.002-1.764.652-3.454 1.809-4.701 1.156-1.247 2.723-1.948 4.358-1.95h22.202c1.634.003 3.201.704 4.357 1.95 1.156 1.247 1.806 2.938 1.808 4.7v3.99z" fill="#343434"/><path d="M33.204 16.15c1.04-.692 1.803-1.777 2.143-3.043A5.694 5.694 0 0035.04 9.3c-.537-1.184-1.462-2.11-2.597-2.6a4.592 4.592 0 00-3.543-.048l-8.28 1.675-.003.001a2.39 2.39 0 00-1.666.817 2.77 2.77 0 00-.684 1.83v4.656h-3.084V14.3h1.85a.58.58 0 00.281-.073.633.633 0 00.22-.204.715.715 0 00.085-.6l-.963-3.113h.377a.582.582 0 00.281-.074.633.633 0 00.22-.203.715.715 0 00.085-.6l-1.234-3.99a.664.664 0 00-.224-.328.587.587 0 00-.361-.126H8.4a.587.587 0 00-.36.126.664.664 0 00-.225.329l-1.233 3.99a.715.715 0 00.085.6.633.633 0 00.219.202.582.582 0 00.28.074h.378l-.822 2.66H4.7V1.665a.693.693 0 00-.18-.47A.595.595 0 004.082 1H1.617c-.164 0-.32.07-.436.195a.693.693 0 00-.181.47v2.66c0 .177.065.346.18.47a.595.595 0 00.437.195h1.85v8.646c0 .176.065.345.18.47a.595.595 0 00.436.195h4.934v1.33H8.4c-1.962.002-3.843.844-5.23 2.34-1.387 1.496-2.168 3.525-2.17 5.64v3.99c.003 2.008.707 3.94 1.971 5.413 1.264 1.473 2.997 2.379 4.852 2.537a3.459 3.459 0 00-.656 2.026c0 .882.325 1.728.903 2.352a2.974 2.974 0 002.18.974c.818 0 1.602-.35 2.18-.974a3.46 3.46 0 00.903-2.352 3.462 3.462 0 00-.632-1.995h13.598a3.462 3.462 0 00-.632 1.995c0 .882.324 1.728.903 2.352a2.974 2.974 0 002.18.974c.818 0 1.602-.35 2.18-.974a3.46 3.46 0 00.903-2.352 3.458 3.458 0 00-.656-2.026c1.855-.158 3.588-1.064 4.852-2.537 1.264-1.473 1.968-3.405 1.971-5.412v-3.99a8.428 8.428 0 00-1.32-4.537c-.856-1.333-2.069-2.353-3.476-2.924v0zM2.234 2.33h1.233v1.33H2.233V2.33zM23.2 10.976a2.76 2.76 0 00-.585-1.7l4.04-.816a5.54 5.54 0 00-.973 2.77 5.636 5.636 0 00.561 2.9L23.2 13.106v-2.13zm3.359 4.655H23.2v-1.132l3.359 1.132zm7.741-3.99a4.16 4.16 0 01-1.057 2.787c-.676.745-1.596 1.175-2.562 1.198l-2.247-.757a3.94 3.94 0 01-1.224-1.635 4.266 4.266 0 01-.283-2.08c.08-.708.336-1.38.74-1.945a3.735 3.735 0 011.554-1.268l1.424-.288c.973.013 1.902.44 2.586 1.186A4.16 4.16 0 0134.3 11.64v0zM20.733 9.646c.244 0 .483.078.686.224.202.146.36.354.454.597.093.243.118.51.07.768a1.365 1.365 0 01-.338.681 1.208 1.208 0 01-.631.364 1.15 1.15 0 01-.713-.075 1.259 1.259 0 01-.553-.49 1.405 1.405 0 01-.208-.74c0-.352.13-.69.362-.94.23-.249.544-.39.871-.39zm-1.233 3.62c.333.21.708.331 1.094.355l1.373.462v1.548H19.5v-2.365zM8.844 6.32h6.512l.822 2.66H8.022l.822-2.66zm-.822 6.65l.822-2.66h6.512l.822 2.66H8.022zm2.228 1.33h3.7v1.33h-3.7V14.3zm1.85 23.277c0 .395-.108.78-.312 1.109a1.888 1.888 0 01-.83.734c-.338.151-.71.191-1.069.114a1.812 1.812 0 01-.947-.546 2.048 2.048 0 01-.506-1.021 2.14 2.14 0 01.105-1.153 1.97 1.97 0 01.681-.896 1.757 1.757 0 011.028-.336c.49 0 .96.211 1.308.585.346.374.542.881.542 1.41v0zm16.65 1.995c-.366 0-.724-.117-1.028-.336a1.97 1.97 0 01-.681-.895 2.142 2.142 0 01-.105-1.153 2.04 2.04 0 01.506-1.022c.259-.278.588-.468.947-.545.359-.078.73-.038 1.069.113.338.151.627.407.83.735.203.328.312.714.312 1.108a2.08 2.08 0 01-.542 1.41 1.787 1.787 0 01-1.308.585v0zm8.017-11.97c-.002 1.763-.652 3.453-1.809 4.7-1.156 1.247-2.723 1.948-4.358 1.95H8.4c-1.635-.002-3.202-.703-4.358-1.95-1.157-1.247-1.807-2.937-1.809-4.7v-3.99c.002-1.764.652-3.454 1.809-4.701 1.156-1.247 2.723-1.948 4.358-1.95h22.202c1.634.003 3.201.704 4.357 1.95 1.156 1.247 1.806 2.938 1.808 4.7v3.99z" stroke="#343434" stroke-width=".5" mask="url(#a)"/><path d="M33.192 11.64h0a2.899 2.899 0 00-.757-1.965 2.507 2.507 0 00-1.835-.82v.125-.125a2.47 2.47 0 00-1.444.472 2.752 2.752 0 00-.952 1.25 2.98 2.98 0 00-.146 1.605c.1.539.344 1.035.706 1.425.362.39.824.657 1.329.765a2.426 2.426 0 001.502-.16 2.64 2.64 0 001.162-1.028 2.93 2.93 0 00.435-1.543zM30.6 12.847c-.217 0-.43-.07-.612-.2a1.189 1.189 0 01-.41-.541 1.302 1.302 0 01-.065-.701c.044-.236.15-.451.306-.619.156-.168.353-.281.567-.327.213-.046.434-.022.635.068s.375.243.498.441a1.283 1.283 0 01-.139 1.529c-.209.225-.49.35-.78.35zm-20.35 7.979h0a.72.72 0 00-.528.235.818.818 0 00-.214.555v6.65c0 .207.076.407.214.556a.72.72 0 00.528.235h18.5c.2 0 .39-.086.528-.235a.818.818 0 00.214-.555v-6.651a.818.818 0 00-.214-.555.72.72 0 00-.528-.235h-18.5zm17.758 6.65H10.992v-5.07h17.016v5.07zm-15.291 2.661H10.25a.72.72 0 00-.528.235.817.817 0 00-.214.555c0 .206.076.406.214.555a.72.72 0 00.528.235h2.467c.2 0 .39-.086.527-.235a.817.817 0 00.214-.555.817.817 0 00-.214-.555.72.72 0 00-.527-.235zm4.933 0h-2.467a.72.72 0 00-.527.235.817.817 0 00-.214.555c0 .206.076.406.214.555a.72.72 0 00.527.235h2.467c.2 0 .39-.086.528-.235a.818.818 0 00.214-.555.817.817 0 00-.214-.555.72.72 0 00-.528-.235zM7.783 18.831c-2.134 0-3.825 2.173-3.825 4.78 0 .207.076.407.214.556a.72.72 0 00.528.234c.2 0 .39-.085.528-.234a.818.818 0 00.214-.556c0-.892.27-1.697.698-2.275.43-.579 1.012-.925 1.643-.925.2 0 .39-.086.528-.235a.817.817 0 00.214-.555.817.817 0 00-.214-.555.72.72 0 00-.528-.235z" fill="#343434" stroke="#343434" stroke-width=".25"/></svg>