<svg width="66" height="68" fill="none" xmlns="http://www.w3.org/2000/svg"><g clip-path="url(#clip0)"><path d="M59.4 32.014l1.6-.275-.14-.777-.71-4.142-1.609.266a28.55 28.55 0 00-.642-2.025 24.817 24.817 0 00-.818-1.97l1.42-.786-1.503-2.593-1.021-1.75-1.412.794a26.558 26.558 0 00-2.755-3.283l1.049-1.215-3.878-3.21-1.056 1.208a25.076 25.076 0 00-2.077-1.297c-.537-.3-1.107-.583-1.66-.843l.57-1.49-4.76-1.742-.56 1.514a25.935 25.935 0 00-4.266-.769l.01-1.597L30.108 6v1.597a28.078 28.078 0 00-4.28.728l-.546-1.498-4.784 1.686.552 1.49a25.986 25.986 0 00-3.753 2.107l-1.037-1.23-3.902 3.184 1.039 1.232a24.06 24.06 0 00-2.796 3.258l-1.411-.819-2.565 4.312 1.402.803a24.086 24.086 0 00-1.485 3.98l-1.608-.285-.916 4.912 1.6.274a24.6 24.6 0 00-.008 4.263L4 36.262l.858 4.918 1.61-.268c.189.689.404 1.363.642 2.028.24.664.513 1.32.81 1.969l-1.411.794 2.301 3.938.223.397 1.402-.794a26.022 26.022 0 002.764 3.282l-1.048 1.215 3.876 3.218 1.047-1.214a25.592 25.592 0 003.745 2.138l-.56 1.5 4.752 1.734.562-1.516c1.392.379 2.817.637 4.255.77v1.597L34.9 62v-1.596c1.439-.13 2.865-.37 4.266-.72l.552 1.513 4.776-1.684-.545-1.508a26.183 26.183 0 003.762-2.115l1.04 1.231 3.902-3.184-1.04-1.231a24.517 24.517 0 002.797-3.25l1.41.817 2.55-4.312-1.404-.801a23.535 23.535 0 001.5-3.988l1.601.285.908-4.905-1.583-.283a24.48 24.48 0 00.007-4.255zM45.723 47.308l-1.486 1.303c-.421.317-.85.633-1.31.924a13.51 13.51 0 01-1.741.998 19.105 19.105 0 01-8.77 2.083 19.1 19.1 0 01-8.75-2.164l-1.758-1.037c-.438-.281-.86-.587-1.262-.915l-.058-.025-1.37-1.233-.066-.063a18.545 18.545 0 01-4.156-6.073 18.279 18.279 0 01-1.444-7.178c.006-1.05.108-2.097.305-3.13.097-.648.24-1.29.43-1.92.148-.494.338-1.004.503-1.483.228-.625.512-1.23.847-1.807a18.64 18.64 0 015.826-6.7 19.066 19.066 0 018.315-3.301c.651-.103 1.31-.158 1.97-.163.28-.03.56-.043.842-.04.265-.003.53.01.793.04.66.017 1.327.09 1.988.17a19.253 19.253 0 018.289 3.378 18.823 18.823 0 015.799 6.729c.297.59.562 1.197.793 1.815.202.484.365.982.486 1.49.204.63.353 1.276.444 1.931.178 1.037.27 2.085.273 3.136a18.268 18.268 0 01-1.507 7.186 18.54 18.54 0 01-4.225 6.049z" fill="#343434"/><path d="M13.648 15.44l13.957 24.176-1.597-9.914 8.215-2.338-20.575-11.923zM51.95 53.792L37.992 29.616 27.707 39.669l24.242 14.123z" fill="#343434"/><path d="M13.512 53.677l17.336-9.819-6.114-9.226-11.222 19.045zm38.531-38.058L27.74 29.502l10.105 10.233 14.197-24.116z" fill="#343434"/><path d="M32.95 0l-.076.315-7.24 30.422 1.478 10.3 5.774-2.36 5.01-.506 2.157-7.29L32.949 0z" fill="#F7C515"/><path d="M32.992 68l7.316-30.737-14.42-.145L32.993 68z" fill="#F7C515"/><path d="M66 34.996l-29.272-7.278-.138 14.344L66 34.996zm-66-.254l29.272-7.278.138 14.344L0 34.742z" fill="#F7C515"/><path d="M32.95 0l-.076.315-7.24 30.422 1.478 10.3 5.774-2.36 5.01-.506 2.157-7.29L32.949 0z" fill="#F7C515"/><path d="M32.992 68l7.316-30.737-14.42-.145L32.993 68z" fill="#F7C515"/><path d="M66 34.996l-29.272-7.278-.138 14.344L66 34.996zm-66-.254l29.272-7.278.138 14.344L0 34.742z" fill="#F7C515"/><path d="M32.847 25.109a9.646 9.646 0 00-5.336 1.593 9.537 9.537 0 00-3.543 4.268 9.454 9.454 0 00-.556 5.503 9.498 9.498 0 002.62 4.88 9.616 9.616 0 004.912 2.613 9.662 9.662 0 005.546-.538 9.578 9.578 0 004.31-3.507 9.469 9.469 0 00.893-8.931 9.505 9.505 0 00-2.073-3.088 9.588 9.588 0 00-3.107-2.065 9.645 9.645 0 00-3.666-.728zm.175 3.522a1.02 1.02 0 01.938.62.999.999 0 01-.22 1.098 1.017 1.017 0 01-1.731-.712.999.999 0 01.625-.93 1.02 1.02 0 01.388-.076zm-4.645 5.416a1.02 1.02 0 01-.936-.621 1 1 0 01.22-1.097 1.017 1.017 0 011.73.713.995.995 0 01-.295.712 1.012 1.012 0 01-.719.293zm1.76 5.442a1.018 1.018 0 01-.935-.621.998.998 0 01.22-1.096 1.016 1.016 0 011.729.71.995.995 0 01-.625.931c-.123.05-.255.076-.389.076zm.084-4.866c0-.552.165-1.092.475-1.551.31-.46.749-.817 1.263-1.028a2.832 2.832 0 013.066.61 2.77 2.77 0 01.602 3.045c-.214.51-.576.945-1.04 1.25a2.83 2.83 0 01-3.545-.358 2.787 2.787 0 01-.821-1.968zm5.714 4.866a1.018 1.018 0 01-.934-.623.998.998 0 01.22-1.095 1.016 1.016 0 011.73.712.995.995 0 01-.297.713 1.008 1.008 0 01-.719.293zm1.772-5.442a1.02 1.02 0 01-.937-.62 1 1 0 01.22-1.097 1.017 1.017 0 011.73.712.997.997 0 01-.624.93c-.124.05-.255.076-.389.075z" fill="#343434"/></g><defs><clipPath id="clip0"><path fill="#fff" d="M0 0h66v68H0z"/></clipPath></defs></svg>