<svg width="46" height="46" fill="none" xmlns="http://www.w3.org/2000/svg"><path d="M34.764 30.327c-1.303 3.124-4.357 3.672-5.356 3.672-.293 0-4.858.242-11.42-5.984-5.28-5.011-5.926-10.4-5.982-11.423-.055-.997.23-3.499 3.67-5.357.427-.23 1.272-.333 1.49-.114.097.096 2.985 4.85 3.06 5.007.076.157.114.312.114.464 0 .217-.154.488-.464.814a7.824 7.824 0 01-1.009.895c-.363.272-.7.56-1.01.863-.308.304-.463.554-.463.75.02.506.436 2.322 3.6 5.102 3.164 2.781 4.688 3.565 4.834 3.619a1.1 1.1 0 00.367.081c.195 0 .445-.154.748-.464.304-.31 1.326-1.71 1.651-2.019.326-.31.597-.464.814-.464.152 0 .307.038.464.114.157.076 4.915 2.86 5.006 2.954.247.253.073 1.043-.114 1.49z" fill="#000"/><rect x="1" y="1" width="44" height="44" rx="7" stroke="#F7C515" stroke-width="2"/></svg>