<svg width="47" height="28" fill="none" xmlns="http://www.w3.org/2000/svg"><mask id="a" maskUnits="userSpaceOnUse" x="0" y="-.172" width="47" height="28" fill="#000"><path fill="#fff" d="M0-.172h47v28H0z"/><path d="M3.401 22.979h1.276c.85 2.293 2.978 3.932 5.47 3.932 2.49 0 4.557-1.639 5.469-3.932h4.861c.912 2.293 2.978 3.932 5.47 3.932h.12c2.31-.066 4.315-1.573 5.227-3.736.122.787.425 1.508.911 2.097.851.983 2.127 1.573 3.525 1.573h8.872c.79 0 1.398-.786 1.398-1.77 0-.982-.79-1.441-1.215-1.638h-3.89l-4.071-7.012h-3.282c-.243 0-.425.131-.486.328l-4.01-2.229v-.196l-3.282-12.32h.304c.304 0 .547-.263.547-.59 0-.328-.243-.59-.547-.59H13.549c-.303 0-.546.262-.546.59 0 .327.242.59.546.59h.304v4.39H4.8c-1.216 0-2.249.983-2.37 2.294l-1.4 11.206a2.755 2.755 0 00.608 2.163 2.19 2.19 0 001.762.918zm6.745 2.752c-2.613 0-4.74-2.294-4.74-5.112s2.127-5.111 4.74-5.111c2.613 0 4.801 2.228 4.801 5.111 0 2.818-2.188 5.112-4.8 5.112zm7.657-15.99l15.86 8.781c.487.328.67 1.114.366 1.639-.365.59-1.094.786-1.945.393l-15.922-7.799-8.264 1.31c-.73.132-1.459-.13-2.006-.655a2.656 2.656 0 01-.79-2.097c.061-1.442 1.216-2.621 2.553-2.556l10.148.983zm10.33 10.288c.062.132.062.328.062.46 0 1.31-.973 2.49-2.188 2.49a2.296 2.296 0 01-1.64-.656c-.426-.459-.67-1.048-.73-1.704 0-.983.486-1.835 1.337-2.293l3.1 1.507c.06.131.06.197.06.197zM15.92 21.8c.061-.393.122-.787.122-1.18 0-2.818-1.702-5.177-4.01-6.029l3.888-.59 5.348 2.622a7.067 7.067 0 00-1.337 4.128c0 .328.06.721.122 1.049H15.92zm10.149 3.932c-2.613.066-4.801-2.163-4.862-4.98 0-1.311.426-2.622 1.276-3.605l1.337.655c-.79.721-1.276 1.77-1.215 2.884 0 .983.365 1.9 1.033 2.556.608.655 1.459.983 2.31.983h.06c1.884-.066 3.342-1.704 3.281-3.736l1.337.656c-.243 2.556-2.187 4.522-4.557 4.587zm14.22-1.114h4.254c.121.066.364.197.364.459 0 .327-.121.59-.243.59H35.73c-.85 0-2.005-.328-2.735-1.18-.546-.59-.729-1.442-.668-2.49v-.131c.182.065.425.065.608.065.85 0 1.58-.393 2.005-1.18.547-1.048.365-2.359-.486-3.145h1.762l4.072 7.012zM27.709 13.87l-7.596-4.194V2.073h4.497l3.1 11.796zm-8.75-11.796V9.02l-.851-.458-3.16-.328V2.072h4.01zm-5.105 6.029L9.479 7.71h4.315l.06.393zM2.125 20.161L3.522 8.954c.061-.72.608-1.245 1.277-1.245h1.64c-1.397.459-2.43 1.835-2.552 3.539a3.89 3.89 0 001.155 3.014 3.735 3.735 0 001.944.983c-1.64 1.115-2.795 3.146-2.795 5.374 0 .393.06.787.122 1.18H3.4c-.365 0-.73-.197-.972-.459a1.65 1.65 0 01-.304-1.18z"/></mask><path d="M3.401 22.979h1.276c.85 2.293 2.978 3.932 5.47 3.932 2.49 0 4.557-1.639 5.469-3.932h4.861c.912 2.293 2.978 3.932 5.47 3.932h.12c2.31-.066 4.315-1.573 5.227-3.736.122.787.425 1.508.911 2.097.851.983 2.127 1.573 3.525 1.573h8.872c.79 0 1.398-.786 1.398-1.77 0-.982-.79-1.441-1.215-1.638h-3.89l-4.071-7.012h-3.282c-.243 0-.425.131-.486.328l-4.01-2.229v-.196l-3.282-12.32h.304c.304 0 .547-.263.547-.59 0-.328-.243-.59-.547-.59H13.549c-.303 0-.546.262-.546.59 0 .327.242.59.546.59h.304v4.39H4.8c-1.216 0-2.249.983-2.37 2.294l-1.4 11.206a2.755 2.755 0 00.608 2.163 2.19 2.19 0 001.762.918zm6.745 2.752c-2.613 0-4.74-2.294-4.74-5.112s2.127-5.111 4.74-5.111c2.613 0 4.801 2.228 4.801 5.111 0 2.818-2.188 5.112-4.8 5.112zm7.657-15.99l15.86 8.781c.487.328.67 1.114.366 1.639-.365.59-1.094.786-1.945.393l-15.922-7.799-8.264 1.31c-.73.132-1.459-.13-2.006-.655a2.656 2.656 0 01-.79-2.097c.061-1.442 1.216-2.621 2.553-2.556l10.148.983zm10.33 10.288c.062.132.062.328.062.46 0 1.31-.973 2.49-2.188 2.49a2.296 2.296 0 01-1.64-.656c-.426-.459-.67-1.048-.73-1.704 0-.983.486-1.835 1.337-2.293l3.1 1.507c.06.131.06.197.06.197zM15.92 21.8c.061-.393.122-.787.122-1.18 0-2.818-1.702-5.177-4.01-6.029l3.888-.59 5.348 2.622a7.067 7.067 0 00-1.337 4.128c0 .328.06.721.122 1.049H15.92zm10.149 3.932c-2.613.066-4.801-2.163-4.862-4.98 0-1.311.426-2.622 1.276-3.605l1.337.655c-.79.721-1.276 1.77-1.215 2.884 0 .983.365 1.9 1.033 2.556.608.655 1.459.983 2.31.983h.06c1.884-.066 3.342-1.704 3.281-3.736l1.337.656c-.243 2.556-2.187 4.522-4.557 4.587zm14.22-1.114h4.254c.121.066.364.197.364.459 0 .327-.121.59-.243.59H35.73c-.85 0-2.005-.328-2.735-1.18-.546-.59-.729-1.442-.668-2.49v-.131c.182.065.425.065.608.065.85 0 1.58-.393 2.005-1.18.547-1.048.365-2.359-.486-3.145h1.762l4.072 7.012zM27.709 13.87l-7.596-4.194V2.073h4.497l3.1 11.796zm-8.75-11.796V9.02l-.851-.458-3.16-.328V2.072h4.01zm-5.105 6.029L9.479 7.71h4.315l.06.393zM2.125 20.161L3.522 8.954c.061-.72.608-1.245 1.277-1.245h1.64c-1.397.459-2.43 1.835-2.552 3.539a3.89 3.89 0 001.155 3.014 3.735 3.735 0 001.944.983c-1.64 1.115-2.795 3.146-2.795 5.374 0 .393.06.787.122 1.18H3.4c-.365 0-.73-.197-.972-.459a1.65 1.65 0 01-.304-1.18z" fill="#fff"/><path d="M3.401 22.979h1.276c.85 2.293 2.978 3.932 5.47 3.932 2.49 0 4.557-1.639 5.469-3.932h4.861c.912 2.293 2.978 3.932 5.47 3.932h.12c2.31-.066 4.315-1.573 5.227-3.736.122.787.425 1.508.911 2.097.851.983 2.127 1.573 3.525 1.573h8.872c.79 0 1.398-.786 1.398-1.77 0-.982-.79-1.441-1.215-1.638h-3.89l-4.071-7.012h-3.282c-.243 0-.425.131-.486.328l-4.01-2.229v-.196l-3.282-12.32h.304c.304 0 .547-.263.547-.59 0-.328-.243-.59-.547-.59H13.549c-.303 0-.546.262-.546.59 0 .327.242.59.546.59h.304v4.39H4.8c-1.216 0-2.249.983-2.37 2.294l-1.4 11.206a2.755 2.755 0 00.608 2.163 2.19 2.19 0 001.762.918zm6.745 2.752c-2.613 0-4.74-2.294-4.74-5.112s2.127-5.111 4.74-5.111c2.613 0 4.801 2.228 4.801 5.111 0 2.818-2.188 5.112-4.8 5.112zm7.657-15.99l15.86 8.781c.487.328.67 1.114.366 1.639-.365.59-1.094.786-1.945.393l-15.922-7.799-8.264 1.31c-.73.132-1.459-.13-2.006-.655a2.656 2.656 0 01-.79-2.097c.061-1.442 1.216-2.621 2.553-2.556l10.148.983zm10.33 10.288c.062.132.062.328.062.46 0 1.31-.973 2.49-2.188 2.49a2.296 2.296 0 01-1.64-.656c-.426-.459-.67-1.048-.73-1.704 0-.983.486-1.835 1.337-2.293l3.1 1.507c.06.131.06.197.06.197zM15.92 21.8c.061-.393.122-.787.122-1.18 0-2.818-1.702-5.177-4.01-6.029l3.888-.59 5.348 2.622a7.067 7.067 0 00-1.337 4.128c0 .328.06.721.122 1.049H15.92zm10.149 3.932c-2.613.066-4.801-2.163-4.862-4.98 0-1.311.426-2.622 1.276-3.605l1.337.655c-.79.721-1.276 1.77-1.215 2.884 0 .983.365 1.9 1.033 2.556.608.655 1.459.983 2.31.983h.06c1.884-.066 3.342-1.704 3.281-3.736l1.337.656c-.243 2.556-2.187 4.522-4.557 4.587zm14.22-1.114h4.254c.121.066.364.197.364.459 0 .327-.121.59-.243.59H35.73c-.85 0-2.005-.328-2.735-1.18-.546-.59-.729-1.442-.668-2.49v-.131c.182.065.425.065.608.065.85 0 1.58-.393 2.005-1.18.547-1.048.365-2.359-.486-3.145h1.762l4.072 7.012zM27.709 13.87l-7.596-4.194V2.073h4.497l3.1 11.796zm-8.75-11.796V9.02l-.851-.458-3.16-.328V2.072h4.01zm-5.105 6.029L9.479 7.71h4.315l.06.393zM2.125 20.161L3.522 8.954c.061-.72.608-1.245 1.277-1.245h1.64c-1.397.459-2.43 1.835-2.552 3.539a3.89 3.89 0 001.155 3.014 3.735 3.735 0 001.944.983c-1.64 1.115-2.795 3.146-2.795 5.374 0 .393.06.787.122 1.18H3.4c-.365 0-.73-.197-.972-.459a1.65 1.65 0 01-.304-1.18z" stroke="#fff" stroke-width=".5" mask="url(#a)"/><path d="M10.146 16.824c-1.961 0-3.528 1.704-3.528 3.795 0 2.092 1.567 3.795 3.528 3.795 1.962 0 3.528-1.703 3.528-3.795 0-2.091-1.566-3.795-3.528-3.795zm0 6.095c-1.137 0-2.123-1.049-2.123-2.3 0-1.25.986-2.3 2.123-2.3 1.138 0 2.124 1.05 2.124 2.3 0 1.253-.927 2.3-2.124 2.3z" fill="#fff" stroke="#fff" stroke-width=".25"/></svg>