<svg width="38" height="28" fill="none" xmlns="http://www.w3.org/2000/svg"><path d="M4.5 23H2a.5.5 0 01-.5-.5v-4A.5.5 0 012 18h21.5a.5.5 0 01.5.5v4a.5.5 0 01-.5.5h-11m1-5L1.256 11.143A.5.5 0 011 10.707V5a.5.5 0 01.5-.5H12M29.5 6V1.5A.5.5 0 0029 1h-6.743a.5.5 0 00-.407.21l-2.2 3.08a.5.5 0 01-.407.21H16.5m-4.5 0v3m0-3h4.5m0 0v6" stroke="#343434" stroke-width="1.8" stroke-linecap="round"/><path d="M34.5 23h2a.5.5 0 00.5-.5v-9.397a.5.5 0 00-.04-.197l-2.83-6.603A.5.5 0 0033.67 6H24.5a.5.5 0 00-.5.5v16a.5.5 0 00.5.5h2" stroke="#343434" stroke-width="1.8" stroke-linecap="round"/><circle cx="8.5" cy="23" r="3.6" stroke="#343434" stroke-width="1.8" stroke-linecap="round"/><circle cx="30.5" cy="23" r="3.6" stroke="#343434" stroke-width="1.8" stroke-linecap="round"/><path d="M24 13h13" stroke="#343434" stroke-width="1.8" stroke-linecap="round"/></svg>