<svg width="18" height="25" fill="none" xmlns="http://www.w3.org/2000/svg"><path d="M11.287 21.115l5.4-14.51.061-.173L18 6.884l-5.461 14.683c-.01.028-.024.061-.033.089-.936 2.392-3.066 3.376-5.32 3.343a7.744 7.744 0 01-1.932-.27 8.57 8.57 0 01-.694-.215c.014.005.01.005-.043-.014-1.545-.56-2.726-1.445-3.486-2.504-.983-1.324-1.37-2.998-.685-4.849l1.19-3.199L5.878 2.273a.914.914 0 00.028-.075c.005-.005.005-.014.01-.019a.164.164 0 01.018-.042C6.492.8 7.701.151 9.094.03c.28-.028.573-.038.865-.024a7.32 7.32 0 012.155.448h.004c.005 0 0 0 0 0 .005 0 .014.005.043.014a6.43 6.43 0 012.386 1.483c.311.298.576.62.788.965.194.312.345.648.435 1.007.151.606.133 1.26-.132 1.973L10.78 18.96l-.014.042c-.345.9-.916 1.501-1.62 1.846a3.04 3.04 0 01-.33.145c-.615.233-1.361.303-2.264.098a5.566 5.566 0 01-.694-.2h-.005c-.964-.35-1.776-.938-2.258-1.712l-.005-.005a4.98 4.98 0 01-.099-.163c-.402-.723-.543-1.627-.132-2.728v-.004l3.699-9.941 1.252.452-3.7 9.941v.005c-.245.667-.184 1.25.09 1.716.378.61 1.087.997 1.607 1.203.694.251 1.389.307 1.97.12.085-.027.17-.06.255-.102.5-.26.817-.718.978-1.137.004-.01.004-.02.01-.024l4.855-13.065c.421-1.133-.221-2.206-1.27-2.966a6.125 6.125 0 00-1.493-.783 6.078 6.078 0 00-1.649-.359 4.05 4.05 0 00-1.294.098 2.659 2.659 0 00-.52.186h-.005c-.01.005-.014.01-.023.01-.014.004-.024.014-.038.018-.42.22-.751.55-.935 1.022-.005.018-.015.032-.02.05L5.572 6.922l-2.783 7.48-1.19 3.198c-.043.112-.076.22-.11.327a3.772 3.772 0 00.299 2.783c.302.57.746 1.073 1.28 1.497a6.776 6.776 0 001.918 1.059 6.816 6.816 0 002.022.41A5.06 5.06 0 008.92 23.4c1.087-.387 1.928-1.175 2.339-2.224.009-.024.018-.047.023-.066l.005.005zM5.93 2.137c.18-.424.43-.783.741-1.081L5.93 2.137zM12.109.454h.005-.005z" fill="#F7C515"/></svg>